# xmcd
#
# Track frame offsets:
#	150
#	28579
#	43084
#	55897
#	81105
#	92200
#	117462
#	145226
#	157766
#	160885
#	179380
#	208003
#	230343
#	258898
#	261312
#	300925
#	317487
#	343180
#
# Disc length: 4745 seconds
#
# Revision: 2
# Processed by: cddbd v1.4PL0 Copyright (c) Steve Scherf et al.
# Submitted via: audiograbber 1.80.04
#
DISCID=f2128712
DTITLE=Buddy Guy - (A Man and The Blues) and (Drinkin'TNT'n' Smokin' Dynamite)
DYEAR=1974
DGENRE=Blues
TTITLE0=A Man and The Blues
TTITLE1=I Can't Quit The Blues
TTITLE2=Money(Thay's What I Want)
TTITLE3=One Room Country Shak
TTITLE4=Mary Had a Little Lamb
TTITLE5=Sweet Little Angel
TTITLE6=Worry,Worry
TTITLE7=Jam On a Monday Morning
TTITLE8=Introduction
TTITLE9=Ah'w Baby/Everything Gonna Be Alright
TTITLE10=How Can One Woman Be So Mean
TTITLE11=Checking On My Baby
TTITLE12=When You See The Tears From My Eyes
TTITLE13=Introduction
TTITLE14=Ten Years Ago
TTITLE15=Messing With The Kid
TTITLE16=Hoodoo Man Blues
TTITLE17=My Younger Days
EXTD=
EXTT0=
EXTT1=
EXTT2=
EXTT3=
EXTT4=
EXTT5=
EXTT6=
EXTT7=
EXTT8=
EXTT9=
EXTT10=
EXTT11=
EXTT12=
EXTT13=
EXTT14=
EXTT15=
EXTT16=
EXTT17=
PLAYORDER=
